<?xml version="1.0" standalone="no"?>
<!DOCTYPE svg PUBLIC "-//W3C//DTD SVG 20010904//EN"
 "http://www.w3.org/TR/2001/REC-SVG-20010904/DTD/svg10.dtd">
<svg version="1.0" xmlns="http://www.w3.org/2000/svg"
 width="1024.000000pt" height="1024.000000pt" viewBox="0 0 1024.000000 1024.000000"
 preserveAspectRatio="xMidYMid meet">

<g transform="translate(0.000000,1024.000000) scale(0.100000,-0.100000)"
fill="#000000" stroke="none">
<path d="M5098 8088 c-48 -64 -217 -335 -294 -473 -194 -349 -370 -795 -499
-1267 l-57 -207 70 -98 c140 -199 244 -363 323 -507 l37 -68 12 73 c38 234
120 590 196 848 74 250 218 621 235 604 12 -12 91 -202 142 -339 118 -317 232
-757 278 -1074 7 -47 15 -89 19 -93 4 -4 35 43 70 105 35 62 130 212 211 333
l148 221 -44 169 c-118 462 -313 945 -553 1375 -67 121 -241 402 -261 423 -4
4 -19 -7 -33 -25z"/>
<path d="M3260 6633 c0 -377 -42 -716 -160 -1296 -33 -161 -71 -357 -85 -437
-146 -838 -104 -1462 148 -2220 l72 -215 818 -3 c449 -1 817 0 817 3 0 3 13
86 30 183 46 273 60 417 67 667 8 317 -15 601 -73 909 -43 232 -147 602 -164
591 -6 -3 -7 0 -4 8 11 29 -131 375 -228 557 -77 144 -159 282 -165 277 -2 -3
3 -18 12 -34 l17 -28 -21 25 c-11 14 -18 32 -15 40 5 14 -144 245 -153 236 -3
-2 6 -20 20 -38 28 -38 40 -58 34 -58 -11 0 -67 91 -62 100 10 17 -174 239
-335 404 -198 204 -529 490 -546 473 -3 -2 11 -15 31 -27 20 -12 34 -24 31
-27 -7 -8 -76 48 -71 57 3 5 1 11 -5 15 -7 4 -10 -51 -10 -162z m17 -110 c-1
-43 -3 -10 -3 72 0 83 2 118 3 78 2 -40 2 -107 0 -150z m192 103 c132 -109
269 -235 276 -254 3 -8 -52 39 -122 104 -71 66 -144 132 -163 146 -56 43 -106
87 -98 88 3 0 52 -38 107 -84z m-202 -293 c-3 -10 -5 -2 -5 17 0 19 2 27 5 18
2 -10 2 -26 0 -35z m727 -223 c49 -58 96 -113 104 -122 8 -10 12 -18 9 -18 -3
0 -41 42 -83 93 -113 133 -166 187 -177 180 -6 -3 -7 -2 -4 4 6 10 -66 87 -74
79 -3 -3 -6 5 -6 17 -2 25 90 -68 231 -233z m146 -181 c15 -28 5 -23 -15 7 -9
15 -12 23 -6 20 6 -4 16 -16 21 -27z m130 -186 c17 -26 30 -52 30 -57 0 -6
-11 7 -25 29 -13 22 -29 48 -35 58 -6 9 -8 17 -5 17 3 0 19 -21 35 -47z m110
-173 c6 -11 8 -20 6 -20 -3 0 -10 9 -16 20 -6 11 -8 20 -6 20 3 0 10 -9 16
-20z m-398 -415 l69 -130 -15 -140 c-38 -339 -48 -758 -26 -1020 23 -262 85
-590 150 -786 11 -34 20 -66 20 -71 0 -4 -123 -8 -274 -8 l-274 0 -5 23 c-2
12 -16 74 -31 137 -68 293 -91 560 -83 935 7 282 27 486 77 781 27 157 107
533 140 655 l12 42 85 -144 c48 -79 117 -202 155 -274z m508 210 c0 -5 -11 10
-25 34 -14 23 -25 46 -25 50 1 10 50 -73 50 -84z m59 -120 c0 -5 -8 6 -19 25
-11 19 -19 40 -19 45 0 6 8 -6 19 -25 11 -19 19 -39 19 -45z m19 -40 c-3 -3
-9 2 -12 12 -6 14 -5 15 5 6 7 -7 10 -15 7 -18z m42 -90 c0 -5 -5 -3 -10 5 -5
8 -10 20 -10 25 0 6 5 3 10 -5 5 -8 10 -19 10 -25z m60 -150 c0 -5 -5 -3 -10
5 -5 8 -10 20 -10 25 0 6 5 3 10 -5 5 -8 10 -19 10 -25z m68 -196 c-3 -8 -7
-3 -11 10 -4 17 -3 21 5 13 5 -5 8 -16 6 -23z m21 -59 c0 -10 -3 -8 -9 5 -12
27 -12 43 0 25 5 -8 9 -22 9 -30z m58 -212 c-3 -8 -6 -5 -6 6 -1 11 2 17 5 13
3 -3 4 -12 1 -19z"/>
<path d="M6820 6677 c-143 -119 -553 -518 -583 -567 -14 -23 -13 -33 8 -125
12 -55 44 -211 71 -347 27 -137 51 -248 54 -248 10 0 40 62 34 71 -6 11 45
104 53 96 2 -3 -8 -24 -23 -46 -15 -23 -25 -44 -22 -47 3 -3 23 23 44 57 l38
63 8 -30 c25 -88 120 -508 142 -624 117 -616 126 -1166 26 -1665 -17 -82 -38
-176 -47 -207 l-16 -58 -273 0 c-151 0 -274 2 -274 5 0 3 11 44 25 92 104 358
153 699 162 1118 9 480 -35 942 -143 1481 -19 95 -34 175 -34 178 0 25 -31
-12 -104 -121 -474 -719 -718 -1577 -692 -2433 7 -264 30 -467 93 -828 l6 -32
816 2 816 3 71 214 c151 451 219 816 231 1236 11 416 -32 790 -167 1445 -88
427 -130 718 -149 1035 -8 132 -8 135 -10 47 -3 -228 62 -693 164 -1167 57
-265 117 -645 130 -830 4 -49 9 -98 12 -109 3 -10 1 -16 -4 -13 -6 4 -13 53
-17 109 -9 130 -47 396 -86 603 -17 88 -34 175 -37 192 -3 18 -9 31 -12 28 -4
-2 -6 8 -5 23 1 29 -26 149 -39 169 -4 6 -5 17 -2 25 2 7 0 29 -4 48 -5 19 -9
27 -10 18 -1 -10 -8 -18 -17 -18 -8 0 -12 5 -9 10 3 6 -1 10 -9 10 -8 0 -18
-5 -22 -12 -4 -7 -3 -8 4 -4 7 4 12 2 12 -4 0 -7 -6 -10 -12 -7 -7 2 -12 16
-10 30 2 21 -1 24 -18 20 -22 -6 -26 7 -8 25 9 9 9 15 -1 25 -10 9 -12 9 -7 0
4 -7 1 -21 -6 -32 -10 -16 -10 -23 0 -33 6 -6 12 -16 12 -22 0 -5 -9 1 -19 13
-18 20 -20 21 -24 4 -4 -15 -5 -14 -6 4 0 12 4 25 9 28 6 3 10 11 10 18 0 6
-6 2 -14 -9 -8 -10 -18 -16 -21 -12 -11 11 -38 -21 -31 -37 8 -23 0 -18 -19
12 -15 23 -15 25 -2 20 9 -3 19 -2 22 3 4 6 -3 10 -14 10 -11 0 -26 6 -33 14
-11 11 -15 11 -26 -3 -7 -9 -11 -10 -7 -3 4 7 0 12 -10 12 -10 0 -13 5 -9 13
4 6 -3 3 -15 -8 -12 -11 -22 -15 -21 -10 5 22 -1 29 -11 15 -9 -12 -10 -11 -6
8 3 12 1 20 -4 16 -5 -3 -9 -12 -9 -20 0 -8 -4 -14 -10 -14 -5 0 -10 11 -10
24 0 32 -16 42 -29 18 -6 -11 -9 -21 -8 -23 1 -2 0 -3 -2 -2 -2 2 -10 -5 -18
-15 -12 -16 -13 -16 -6 2 4 13 3 17 -5 12 -7 -4 -12 -2 -12 3 0 6 5 11 12 11
6 0 3 10 -8 22 -13 14 -14 19 -4 14 8 -4 7 -1 -4 8 -11 9 -16 22 -12 31 3 10
2 14 -5 9 -6 -3 -9 -15 -6 -25 6 -22 6 -22 -28 -9 -22 8 -26 15 -23 35 3 14 1
25 -3 25 -5 0 -9 -12 -9 -27 -1 -24 -2 -26 -11 -10 -5 9 -7 22 -4 27 3 6 -3
10 -14 10 -11 0 -27 10 -36 23 l-16 22 5 -27 c2 -15 -1 -28 -8 -31 -8 -3 -12
7 -11 31 0 23 -5 37 -15 39 -13 4 -13 3 0 -6 8 -5 12 -13 9 -16 -9 -8 -40 6
-34 16 6 9 -36 55 -47 52 -5 -2 -8 5 -9 15 0 12 -3 10 -11 -8 -15 -36 -11 -84
23 -263 17 -88 28 -164 26 -170 -2 -6 -20 72 -40 174 -53 267 -96 469 -103
480 -3 6 7 27 22 47 75 98 391 403 584 562 41 34 87 73 102 86 l27 24 4 -118
3 -117 2 123 c1 67 -1 122 -5 121 -5 0 -73 -55 -153 -122z m-701 -1117 c28
-153 66 -423 91 -636 5 -49 12 -151 14 -225 2 -73 2 -111 0 -84 -10 118 -35
368 -41 397 -5 28 -7 29 -14 13 -6 -17 -8 -15 -8 8 -1 16 -10 42 -22 58 -24
34 -15 39 12 7 l19 -21 0 21 c0 12 -3 21 -7 20 -5 0 -16 2 -25 6 -9 4 -25 3
-37 -3 -29 -16 -33 -14 -20 10 9 17 8 20 -2 13 -18 -11 -49 -13 -49 -2 0 4 6
8 14 8 8 0 13 8 11 18 -1 10 -9 16 -20 14 -10 -2 -14 1 -10 7 3 7 0 8 -9 5 -9
-3 -13 -14 -10 -30 3 -17 0 -24 -11 -24 -10 0 -13 -5 -9 -12 5 -7 3 -8 -6 -3
-10 6 -9 11 4 21 10 7 13 15 7 18 -6 4 -8 13 -4 21 5 14 -8 19 -44 18 -7 -1
-13 4 -14 11 0 6 -4 2 -8 -9 -5 -12 -4 -25 2 -33 7 -9 6 -16 -2 -25 -10 -9
-11 -8 -5 7 5 13 4 17 -3 13 -7 -5 -9 5 -6 28 4 28 2 34 -10 29 -8 -3 -18 0
-22 5 -3 6 -11 8 -17 5 -6 -4 -8 -2 -5 3 4 6 0 14 -8 17 -18 6 -16 26 4 42 11
9 12 12 1 19 -9 5 -11 4 -6 -3 4 -7 4 -12 -1 -13 -4 0 -16 -2 -26 -4 -11 -2
-16 1 -14 8 7 20 -12 47 -28 40 -9 -3 -15 -10 -14 -17 3 -25 -2 -35 -21 -41
-13 -4 -36 -41 -66 -106 -26 -54 -49 -98 -51 -96 -8 8 101 226 110 220 6 -3 7
-1 3 5 -12 20 115 254 247 455 l72 109 17 -74 c10 -40 31 -147 47 -238z m261
238 c0 -4 -4 -8 -9 -8 -6 0 -12 4 -15 8 -3 5 1 9 9 9 8 0 15 -4 15 -9z m130
-98 c0 -5 -5 -10 -11 -10 -5 0 -7 5 -4 10 3 6 8 10 11 10 2 0 4 -4 4 -10z
m-60 -120 c-6 -11 -12 -20 -14 -20 -2 0 -2 9 1 20 3 11 9 20 15 20 5 0 4 -9
-2 -20z m40 11 c0 -5 -7 -14 -15 -21 -16 -14 -18 -10 -9 14 6 17 24 22 24 7z
m40 -45 c7 -24 10 -50 8 -56 -2 -6 -11 16 -20 49 -9 34 -12 59 -8 56 4 -2 13
-25 20 -49z m258 9 c-3 -3 -9 2 -12 12 -6 14 -5 15 5 6 7 -7 10 -15 7 -18z
m169 -47 c-3 -8 -6 -5 -6 6 -1 11 2 17 5 13 3 -3 4 -12 1 -19z m-27 -8 c-6
-11 -13 -20 -16 -20 -2 0 0 9 6 20 6 11 13 20 16 20 2 0 0 -9 -6 -20z m131
-10 c6 0 7 5 3 12 -4 7 -3 8 4 4 18 -11 14 -27 -5 -25 -35 3 -38 -2 -13 -22
l25 -21 -25 14 c-14 9 -27 23 -28 33 -3 11 0 15 7 11 6 -4 11 -1 12 6 0 10 2
10 6 1 2 -7 9 -13 14 -13z m-107 -8 c3 -5 -1 -9 -9 -9 -8 0 -12 4 -9 9 3 4 7
8 9 8 2 0 6 -4 9 -8z m-396 -67 c0 -16 -2 -15 -8 5 -11 34 -11 60 0 35 5 -11
8 -29 8 -40z m516 -4 c3 -5 -1 -11 -9 -14 -9 -4 -12 -1 -8 9 6 16 10 17 17 5z
m-455 -261 c-1 -22 -37 117 -43 165 -3 22 6 -3 19 -55 13 -52 24 -102 24 -110z
m-739 30 c0 -5 -4 -10 -10 -10 -5 0 -10 5 -10 10 0 6 5 10 10 10 6 0 10 -4 10
-10z m95 0 c-3 -5 -13 -10 -21 -10 -8 0 -14 5 -14 10 0 6 9 10 21 10 11 0 17
-4 14 -10z m652 -82 c-3 -7 -5 -2 -5 12 0 14 2 19 5 13 2 -7 2 -19 0 -25z
m-512 -15 c4 -11 0 -11 -18 -2 -31 16 -32 18 -8 16 11 -1 23 -7 26 -14z m-60
-3 c-3 -5 -12 -10 -18 -10 -7 0 -6 4 3 10 19 12 23 12 15 0z m-453 -63 c-10
-25 -21 -50 -26 -54 -4 -4 2 17 13 47 12 30 21 57 21 59 0 2 2 2 5 0 2 -3 -3
-26 -13 -52z m1055 -59 c-3 -7 -5 -2 -5 12 0 14 2 19 5 13 2 -7 2 -19 0 -25z
m-477 0 c0 -18 -2 -20 -9 -8 -6 8 -7 18 -5 22 9 14 14 9 14 -14z m-641 -107
c-6 -18 -13 -30 -15 -28 -2 2 1 18 7 36 6 18 13 30 15 28 2 -2 -1 -18 -7 -36z
m1138 -3 c-3 -7 -5 -2 -5 12 0 14 2 19 5 13 2 -7 2 -19 0 -25z m-1180 -120
c-3 -8 -6 -5 -6 6 -1 11 2 17 5 13 3 -3 4 -12 1 -19z m1220 -120 c-3 -8 -6 -5
-6 6 -1 11 2 17 5 13 3 -3 4 -12 1 -19z m-480 -220 c-2 -29 -3 -6 -3 52 0 58
1 81 3 53 2 -29 2 -77 0 -105z m500 30 c-3 -7 -5 -2 -5 12 0 14 2 19 5 13 2
-7 2 -19 0 -25z m10 -120 c-3 -8 -6 -5 -6 6 -1 11 2 17 5 13 3 -3 4 -12 1 -19z
m540 -70 c-2 -18 -4 -6 -4 27 0 33 2 48 4 33 2 -15 2 -42 0 -60z m-1050 -10
c-2 -13 -4 -3 -4 22 0 25 2 35 4 23 2 -13 2 -33 0 -45z m1060 -50 c-3 -8 -6
-5 -6 6 -1 11 2 17 5 13 3 -3 4 -12 1 -19z m-540 -55 c-3 -10 -5 -4 -5 12 0
17 2 24 5 18 2 -7 2 -21 0 -30z m536 -264 c-4 -5 -6 58 -3 139 l5 147 3 -139
c1 -77 -1 -143 -5 -147z m-1066 104 c-3 -10 -5 -2 -5 17 0 19 2 27 5 18 2 -10
2 -26 0 -35z m1060 -185 c-3 -7 -5 -2 -5 12 0 14 2 19 5 13 2 -7 2 -19 0 -25z
m-10 -150 c-2 -13 -4 -5 -4 17 -1 22 1 32 4 23 2 -10 2 -28 0 -40z m-10 -85
c-3 -10 -5 -4 -5 12 0 17 2 24 5 18 2 -7 2 -21 0 -30z"/>
<path d="M5769 5364 c-8 -10 -8 -14 0 -14 6 0 11 4 11 9 0 5 9 7 20 4 11 -3
20 -3 20 0 0 12 -41 13 -51 1z"/>
<path d="M5840 5356 c0 -2 7 -7 16 -10 8 -3 12 -2 9 4 -6 10 -25 14 -25 6z"/>
<path d="M5816 5342 c-3 -5 1 -9 9 -9 8 0 12 4 9 9 -3 4 -7 8 -9 8 -2 0 -6 -4
-9 -8z"/>
<path d="M5867 5288 c-15 -12 -15 -15 1 -34 10 -11 25 -21 35 -21 25 0 21 15
-5 19 -12 2 -23 9 -26 17 -3 8 0 11 7 7 6 -4 11 -1 11 8 0 19 -2 19 -23 4z"/>
<path d="M6141 5274 c0 -11 3 -14 6 -6 3 7 2 16 -1 19 -3 4 -6 -2 -5 -13z"/>
<path d="M6010 5236 c0 -3 9 -10 20 -16 11 -6 20 -8 20 -6 0 3 -9 10 -20 16
-11 6 -20 8 -20 6z"/>
<path d="M6108 5143 c7 -3 16 -2 19 1 4 3 -2 6 -13 5 -11 0 -14 -3 -6 -6z"/>
<path d="M6510 5771 c0 -6 4 -13 10 -16 6 -3 7 1 4 9 -7 18 -14 21 -14 7z"/>
<path d="M6650 5690 c13 -8 12 -11 -3 -23 -17 -12 -17 -14 -3 -26 14 -12 16
-11 16 7 0 12 5 24 11 28 12 7 -6 24 -26 24 -5 0 -3 -5 5 -10z"/>
<path d="M7061 5574 c0 -11 3 -14 6 -6 3 7 2 16 -1 19 -3 4 -6 -2 -5 -13z"/>
</g>
</svg>
